<?xml version="1.0" standalone="no"?>
<!DOCTYPE svg PUBLIC "-//W3C//DTD SVG 20010904//EN"
 "http://www.w3.org/TR/2001/REC-SVG-20010904/DTD/svg10.dtd">
<svg version="1.0" xmlns="http://www.w3.org/2000/svg"
 width="512.000000pt" height="512.000000pt" viewBox="0 0 512.000000 512.000000"
 preserveAspectRatio="xMidYMid meet">
<metadata>
Created by potrace 1.11, written by Peter Selinger 2001-2013
</metadata>
<g transform="translate(0.000000,512.000000) scale(0.100000,-0.100000)"
fill="#000000" stroke="none">
<path d="M3600 5102 c-52 -28 -66 -63 -50 -126 37 -149 17 -241 -70 -319 -80
-72 -201 -123 -443 -187 -481 -127 -728 -310 -816 -605 -30 -100 -33 -157 -10
-194 32 -53 114 -60 176 -15 25 19 34 36 43 81 37 182 127 290 320 386 63 31
178 77 255 102 77 25 196 64 265 87 407 132 544 255 551 493 3 102 -41 256
-81 285 -41 29 -99 34 -140 12z"/>
<path d="M4273 4870 c-42 -17 -53 -49 -52 -151 1 -136 -28 -213 -110 -287 -42
-38 -175 -105 -231 -116 -14 -2 -53 -12 -87 -21 -35 -9 -71 -18 -80 -20 -10
-2 -40 -9 -68 -15 -27 -6 -61 -14 -75 -16 -14 -3 -68 -18 -122 -34 -254 -78
-412 -188 -509 -355 -94 -159 -89 -250 13 -284 20 -7 49 -9 64 -5 31 7 84 51
84 68 0 36 67 145 120 197 102 99 239 153 568 224 251 54 366 99 472 184 72
58 108 101 144 176 52 107 71 236 51 353 -14 84 -103 134 -182 102z"/>
<path d="M97 3185 c-9 -24 4 -598 18 -845 9 -166 41 -452 61 -544 3 -11 7 -41
10 -66 10 -74 83 -354 124 -476 43 -127 117 -295 161 -367 16 -26 29 -50 29
-53 0 -3 24 -42 54 -88 69 -104 186 -237 275 -315 l70 -59 -37 -6 c-20 -3 -68
-8 -107 -11 -214 -15 -492 -60 -576 -93 -74 -29 -83 -36 -75 -65 5 -21 19 -29
83 -51 43 -14 98 -28 123 -31 25 -3 61 -10 80 -15 33 -8 68 -13 185 -26 28 -3
60 -7 72 -9 12 -2 57 -6 100 -10 43 -3 92 -8 108 -10 17 -2 82 -7 145 -10 63
-4 138 -8 165 -10 368 -26 1548 -26 1890 0 33 2 102 7 153 10 51 3 110 7 130
9 20 3 73 7 117 11 80 6 135 12 187 21 15 2 49 6 74 9 42 4 114 16 184 30 14
3 37 7 51 10 39 7 111 34 136 51 86 56 -69 112 -442 159 -96 12 -110 14 -190
21 -44 3 -87 8 -95 10 -8 1 -24 3 -35 3 -16 1 -12 7 20 33 146 118 307 317
404 503 23 44 48 85 54 91 7 7 55 14 107 18 52 3 106 8 120 10 14 3 41 7 60
10 155 23 332 76 453 137 310 155 477 405 480 717 1 79 -2 108 -19 197 -30
162 -165 351 -329 462 -118 80 -326 167 -451 188 -21 4 -56 11 -77 17 l-38 9
3 217 3 217 -2007 0 c-1334 0 -2009 -3 -2011 -10z m1101 -317 c2 -9 -6 -47
-17 -85 -11 -37 -22 -86 -26 -108 -3 -23 -8 -52 -10 -65 -26 -130 -27 -540 -1
-745 23 -186 25 -200 31 -233 3 -15 8 -43 11 -62 9 -58 92 -419 119 -517 22
-82 77 -262 93 -303 8 -20 -85 57 -181 149 -255 247 -444 575 -552 953 -19 66
-37 138 -40 161 -3 23 -10 58 -15 77 -26 104 -45 323 -44 515 1 176 8 265 22
274 5 3 144 6 309 5 267 0 298 -2 301 -16z m3088 -569 c115 -57 190 -154 213
-275 13 -68 6 -237 -13 -307 -37 -133 -128 -214 -301 -266 -68 -21 -227 -52
-233 -46 -2 1 10 58 27 126 16 68 32 140 35 159 3 19 10 58 15 85 5 28 12 70
15 95 11 83 16 115 20 155 3 22 8 58 10 80 3 22 8 83 11 135 9 138 4 131 77
109 34 -11 90 -33 124 -50z"/>
</g>
</svg>
